<svg width="270" height="59" fill="none" xmlns="http://www.w3.org/2000/svg"><g clip-path="url(#a)" fill="#fff"><path d="m103.072 24.428 2.445 17.097h-3.461l-1.35-11.164-4.47 11.164h-1.714L90.045 30.33 88.62 41.525h-3.461l2.445-17.096h3.146l4.537 11.122 4.53-11.123h3.255ZM119.767 35.217c0 .236-.018.578-.052 1.017h-9.184c.203.813.662 1.54 1.309 2.073a3.75 3.75 0 0 0 2.43.776 6.353 6.353 0 0 0 3.75-1.17l.941 2.824c-.135.087-.326.195-.57.33a8.533 8.533 0 0 1-1.605.536 9.897 9.897 0 0 1-2.584.33c-2.34 0-4.103-.624-5.291-1.874-1.187-1.25-1.781-2.862-1.781-4.834 0-1.968.56-3.58 1.68-4.838 1.12-1.257 2.731-1.882 4.834-1.875 1.97 0 3.48.59 4.53 1.77 1.05 1.18 1.581 2.825 1.593 4.935Zm-9.142-1.425h5.7a2.355 2.355 0 0 0-.75-1.68 3.068 3.068 0 0 0-4.099.038 2.288 2.288 0 0 0-.851 1.642ZM122.625 37.94v-6.184h-1.627v-2.85h1.627v-4.477h3.255v4.477h2.445v2.85h-2.445v5.291c0 .9.209 1.46.626 1.68.413.222 1.02.203 1.819-.048v2.846a6.374 6.374 0 0 1-2.392.409c-1.125 0-1.95-.375-2.494-1.08a4.73 4.73 0 0 1-.814-2.914ZM140.531 28.906h3.255v12.619h-3.255v-1.346a4.903 4.903 0 0 1-3.87 1.755 5.882 5.882 0 0 1-4.462-1.973 7.03 7.03 0 0 1 0-9.491 5.899 5.899 0 0 1 4.462-1.973 4.908 4.908 0 0 1 3.87 1.74v-1.33Zm-5.906 8.753a3.436 3.436 0 1 0-1.02-2.442 3.334 3.334 0 0 0 1.02 2.442ZM160.684 28.497a4.565 4.565 0 0 1 3.563 1.463c.88.98 1.321 2.392 1.323 4.237v7.328h-3.258v-6.92c0-1-.148-1.724-.443-2.174-.3-.45-.829-.675-1.594-.675-1.627 0-2.441 1.085-2.441 3.255v6.514h-3.255v-6.92c0-.982-.165-1.705-.484-2.163a1.765 1.765 0 0 0-1.552-.686c-1.63 0-2.445 1.085-2.445 3.255v6.514h-3.255v-12.62h3.255v1.223a4 4 0 0 1 3.277-1.63c1.595 0 2.774.568 3.537 1.705a4.875 4.875 0 0 1 3.772-1.706ZM169.564 30.459a6.718 6.718 0 0 1 10.35 1.018 6.721 6.721 0 0 1-1.865 9.318 6.716 6.716 0 0 1-8.92-1.328 6.717 6.717 0 0 1 .435-9.008Zm2.317 7.2a3.436 3.436 0 1 0-1.02-2.442 3.334 3.334 0 0 0 1.02 2.442ZM186.334 31.576a4.499 4.499 0 0 1 2.036-2.175 7.878 7.878 0 0 1 3.255-.904v3.844a4.57 4.57 0 0 0-2.441 0 4.016 4.016 0 0 0-2.01 1.335 3.858 3.858 0 0 0-.84 2.561v5.288h-3.259V28.906h3.259v2.67ZM201.195 28.497a5.903 5.903 0 0 1 4.467 1.973 7.029 7.029 0 0 1 0 9.491 5.892 5.892 0 0 1-4.467 1.973 4.911 4.911 0 0 1-3.87-1.755v7.874h-3.255V28.93h3.255v1.308a4.911 4.911 0 0 1 3.87-1.74Zm-2.85 9.161a3.436 3.436 0 1 0-1.02-2.44 3.35 3.35 0 0 0 .257 1.325c.176.42.436.8.763 1.115ZM216.817 28.497a4.357 4.357 0 0 1 3.473 1.452c.84.967 1.26 2.383 1.26 4.248v7.328h-3.255v-6.919c0-.982-.195-1.706-.585-2.164-.39-.457-1.013-.686-1.875-.686a2.758 2.758 0 0 0-2.036.814c-.54.544-.814 1.357-.814 2.441v6.514h-3.255V23.61H213v6.518c.92-1.088 2.192-1.632 3.817-1.632ZM225.548 30.459a6.718 6.718 0 0 1 10.346 1.02 6.72 6.72 0 1 1-10.346-1.02Zm2.313 7.2a3.447 3.447 0 1 0-1.016-2.442 3.331 3.331 0 0 0 1.016 2.442ZM244.987 33.485c1.95.307 3.282.807 3.994 1.5a3.329 3.329 0 0 1 1.069 2.467 4.013 4.013 0 0 1-1.5 3.233c-1 .827-2.353 1.242-4.058 1.245a9.854 9.854 0 0 1-3.573-.611 7.692 7.692 0 0 1-2.28-1.22l1.068-3.055a6.422 6.422 0 0 0 2.074 1.26 6.97 6.97 0 0 0 2.404.52c1.732.036 2.599-.33 2.599-1.094a.658.658 0 0 0-.473-.608 9.028 9.028 0 0 0-1.77-.435 15.49 15.49 0 0 1-2.835-.697 4.591 4.591 0 0 1-1.695-.994 3.134 3.134 0 0 1-.75-1.185 4.608 4.608 0 0 1-.202-1.447c0-1.055.517-1.963 1.552-2.723a6.498 6.498 0 0 1 3.968-1.147c1.712.004 3.397.424 4.912 1.222l-.915 2.951a5.778 5.778 0 0 0-1.68-.712 9.087 9.087 0 0 0-2.317-.375c-1.5-.034-2.25.221-2.25.75 0 .422.508.727 1.526.915.154.034.401.075.75.127l.382.113ZM255.51 26.63a2.276 2.276 0 1 1 .649-1.594 2.167 2.167 0 0 1-.649 1.594Zm-3.221 14.895V28.906h3.259v12.619h-3.259ZM264.124 33.485c1.95.307 3.281.807 3.993 1.5a3.332 3.332 0 0 1 1.069 2.467 4.013 4.013 0 0 1-1.5 3.233c-1 .827-2.352 1.242-4.057 1.245a9.893 9.893 0 0 1-3.578-.611 7.713 7.713 0 0 1-2.276-1.22l1.069-3.055a6.418 6.418 0 0 0 2.073 1.26 6.97 6.97 0 0 0 2.404.52c1.733.035 2.595-.33 2.595-1.094a.646.646 0 0 0-.469-.607 8.994 8.994 0 0 0-1.77-.436 15.51 15.51 0 0 1-2.835-.697 4.591 4.591 0 0 1-1.695-.994 3.147 3.147 0 0 1-.75-1.185 4.608 4.608 0 0 1-.202-1.447c0-1.055.516-1.963 1.549-2.723a6.505 6.505 0 0 1 3.971-1.147c1.712.004 3.398.424 4.912 1.222l-.918 2.951a5.742 5.742 0 0 0-1.68-.712 9.042 9.042 0 0 0-2.314-.375c-1.5-.035-2.25.215-2.25.75 0 .422.509.727 1.526.915.154.034.398.075.75.127l.383.113ZM21 56.277l8.7-12.244c.09.015.182.024.274.027l2.467 11.876a1.305 1.305 0 0 0-.427.529H21.067a1.419 1.419 0 0 0-.086-.188H21Zm32.186-.341 2.468-11.876c.092-.003.183-.013.273-.03l8.704 12.247a1.07 1.07 0 0 0-.086.188h-10.92a1.315 1.315 0 0 0-.431-.529h-.008Zm-39.832-15.72c.16-.098.302-.225.416-.375l14.452 2.801c.082.36.27.686.54.938l-8.625 12.116a1.111 1.111 0 0 0-.19 0h-.072l-6.521-15.48Zm43.5 3.375c.27-.25.459-.578.54-.938l14.452-2.8c.112.151.254.279.416.374l-6.517 15.461a.992.992 0 0 0-.278 0l-8.613-12.097Zm-25.913.214a1.819 1.819 0 0 0 .634-2.43L38.17 32l4.046 5.625-8.865 17.8-2.41-11.62Zm12.461-6.161 4.047-5.625 6.592 9.375a1.819 1.819 0 0 0 .634 2.43L52.26 55.448l-8.858-17.804Zm-29.34 1.218a1.402 1.402 0 0 0-.213-.663l7.45-7.523c.172.062.357.081.537.056l6.776 10.339a1.823 1.823 0 0 0-.318.547l-14.232-2.756Zm50.25-8.186 7.452 7.523c-.126.2-.2.428-.214.663L57.3 41.618a1.833 1.833 0 0 0-.323-.547l6.777-10.339h.16c.129 0 .256-.023.376-.067l.022.011Zm-41.647-.51a1.166 1.166 0 0 0 .041-1.148l9.919-13.03-2.756 24.45a2.182 2.182 0 0 0-.41.074l-6.794-10.346Zm33.052 10.26-2.733-24.439 9.9 13.05c-.087.166-.132.35-.132.537-.002.216.058.428.173.61l-6.773 10.328a2.213 2.213 0 0 0-.412-.075l-.023-.011Zm-43.81-12.814a1.184 1.184 0 0 0-.15-.498l6.318-11.127c.069.006.137.006.206 0l2.685 12.653a1.124 1.124 0 0 0-.259.273l-8.8-1.3Zm55.627-11.625 6.318 11.134a1.182 1.182 0 0 0-.146.499l-8.805 1.305a1.18 1.18 0 0 0-.255-.274l2.685-12.664h.203Zm-33.863-.315c.137-.055.263-.133.375-.229l8.25 6.627v13.95l-3.724-5.187a.517.517 0 0 0-.416-.213.51.51 0 0 0-.412.217l-6.87 9.75 2.797-24.915Zm9.641 6.383 8.25-6.627c.113.095.24.173.375.23L54.75 40.58l-6.87-9.75a.515.515 0 0 0-.416-.218.51.51 0 0 0-.413.214l-3.739 5.179v-13.95ZM19.25 15.646c.28-.209.486-.502.588-.836l12.02.075c.034.088.078.172.13.251L21.952 28.362 19.25 15.646Zm34.376-.51c.051-.079.094-.163.127-.251l12.023-.075c.106.335.316.628.6.836l-2.696 12.75-10.054-13.26ZM2.07 12.755a.61.61 0 0 0 .075-.098l14.49 1.913c.053.375.235.721.514.979l-6.225 10.968a1.157 1.157 0 0 0-.48.023L2.07 12.755Zm66.375 2.793c.278-.258.459-.603.514-.978l14.486-1.913a.945.945 0 0 0 .075.098L75.169 26.54a1.167 1.167 0 0 0-.48-.023L68.445 15.55ZM6.585 3.613l24.619 10.253-11.39-.072a1.645 1.645 0 0 0-2.28-.93l-10.95-9.25Zm72.442 0-10.953 9.252a1.631 1.631 0 0 0-1.676.135 1.65 1.65 0 0 0-.6.794l-11.39.072 24.62-10.253ZM2.3 11.652a1.151 1.151 0 0 0-.488-.645l2.07-7.669c.196-.024.383-.096.544-.21L16.8 13.565 2.299 11.652Zm78.885-8.524c.162.113.348.185.543.21l2.07 7.67c-.233.15-.405.379-.487.644l-14.494 1.913L81.184 3.128Zm-.443-1.32L53.25 13.246a1.335 1.335 0 0 0-.788-.259 1.387 1.387 0 0 0-1.387 1.388v.127l-8.269 6.656-8.276-6.648v-.128a1.387 1.387 0 0 0-1.38-1.395c-.282 0-.558.087-.788.252L4.875 1.809a1.178 1.178 0 0 0-2.299.374c.002.315.13.616.353.837l-2.13 7.875a1.178 1.178 0 0 0 .326 2.28L9.656 27.2a1.178 1.178 0 0 0 1.841 1.372l9.064 1.343v.049l-7.507 7.597a1.389 1.389 0 0 0-.465-.079 1.474 1.474 0 0 0-.26 2.922l6.653 15.79a1.178 1.178 0 1 0 1.973 1.283h11.04a1.268 1.268 0 1 0 2.134-1.32l8.677-17.437 8.678 17.437a1.268 1.268 0 1 0 2.133 1.32h11.04a1.178 1.178 0 1 0 1.973-1.282l6.649-15.791a1.47 1.47 0 0 0-.26-2.922 1.41 1.41 0 0 0-.464.079l-7.523-7.598v-.048l9.068-1.343a1.173 1.173 0 0 0 1.837-1.372l8.524-14.025a1.177 1.177 0 0 0 .345-2.292l-2.134-7.875a1.174 1.174 0 0 0 .353-.836 1.177 1.177 0 0 0-2.299-.375"/></g><defs><clipPath id="a"><path fill="#fff" transform="translate(0 .987)" d="M0 0h269.186v57.255H0z"/></clipPath></defs></svg>