<svg width="1920" height="1080" viewBox="0 0 1920 1080" fill="none" xmlns="http://www.w3.org/2000/svg">
<g filter="url(#filter0_d_827_2)">
<path d="M804.28 481.798C796.976 481.798 790.584 483.351 785.106 486.454C779.626 489.558 774.991 493.791 771.198 499.152C767.546 504.515 764.735 510.722 762.767 517.778C760.941 524.832 760.029 532.239 760.029 539.999C760.029 547.337 760.941 554.533 762.767 561.587C764.735 568.501 767.546 574.708 771.198 580.212C774.991 585.573 779.626 589.948 785.106 593.334C790.584 596.578 796.976 598.2 804.28 598.2C810.041 598.2 815.59 596.931 820.929 594.391C826.266 591.711 830.973 587.902 835.047 582.963C839.12 578.025 842.351 571.958 844.74 564.763C847.268 557.565 848.533 549.311 848.533 539.999C848.533 531.676 847.48 523.986 845.371 516.93C843.406 509.735 840.525 503.597 836.731 498.518C832.94 493.297 828.303 489.207 822.825 486.243C817.345 483.281 811.165 481.798 804.28 481.798ZM804.28 620C792.059 620 781.242 617.954 771.829 613.862C762.416 609.77 754.41 604.197 747.806 597.143C741.345 589.948 736.428 581.482 733.056 571.746C729.685 562.01 728 551.427 728 539.999C728 528.994 729.685 518.623 733.056 508.888C736.569 499.152 741.555 490.688 748.018 483.49C754.62 476.154 762.628 470.44 772.041 466.348C781.452 462.117 792.2 460 804.28 460C818.047 460 829.708 462.397 839.262 467.195C848.955 471.991 856.822 478.271 862.861 486.031C869.043 493.65 873.468 502.257 876.138 511.852C878.946 521.305 880.353 530.687 880.353 539.999C880.353 550.441 878.666 560.459 875.294 570.053C871.923 579.647 867.006 588.182 860.545 595.662C854.223 602.999 846.285 608.925 836.731 613.438C827.321 617.813 816.504 620 804.28 620Z" fill="white"/>
<path d="M915.556 463.174H953.697L987.202 581.905L988.677 589.524L990.364 581.905L1023.66 463.174H1062.01L1076.34 617.038H1048.73L1040.51 501.057L1039.88 490.899L1037.35 501.057L1004.06 614.921H973.084L939.368 500.847L936.839 490.899L936.208 500.847L928.409 617.038H900.805L915.556 463.174Z" fill="white"/>
<path d="M1140.7 509.311L1137.33 501.692L1137.75 508.888V617.038H1112.04V463.174H1141.12L1205.81 566.667L1208.76 575.132L1208.34 566.667V463.174H1234.89V617.038H1208.34L1140.7 509.311Z" fill="white"/>
<path d="M1303.02 617.038H1273.73V463.174H1303.02V617.038Z" fill="white"/>
<path d="M1338.14 463.174H1430.02V484.973H1368.28V617.038H1338.14V463.174ZM1376.28 546.984C1376.99 544.726 1377.9 542.327 1379.02 539.787C1380.15 537.249 1381.55 534.92 1383.24 532.804C1384.92 530.687 1386.89 528.994 1389.14 527.725C1391.53 526.313 1394.27 525.608 1397.36 525.608H1422.85V546.984H1376.28Z" fill="white"/>
<path d="M1460.99 463.174H1491.33V595.026H1546.54V617.038H1460.99V463.174Z" fill="white"/>
<path d="M1602.44 617.038H1573.15V463.174H1602.44V617.038Z" fill="white"/>
<path d="M1628.5 463.174H1661.79L1687.71 513.756L1689.82 520.316L1691.5 513.756L1717.42 463.174H1750.51L1704.78 539.154L1752.82 617.038H1720.16L1628.5 463.174ZM1658.42 617.038H1626.18L1667.9 548.253C1669.17 550.088 1670.64 552.487 1672.33 555.449C1674.01 558.413 1675.35 561.657 1676.33 565.184C1677.46 568.572 1678.02 572.17 1678.02 575.979C1678.16 579.647 1677.32 583.104 1675.49 586.348L1658.42 617.038Z" fill="white"/>
</g>
<path d="M325.082 652.979L320.019 655.898L320.023 650.053C320.023 650.053 319.952 653.042 321.301 653.789C322.622 654.521 325.082 652.979 325.082 652.979Z" fill="#8E3315"/>
<path d="M195.147 646.951C223.684 700.917 272.493 741.329 330.834 759.308C389.176 777.288 452.271 771.355 506.241 742.816C560.211 714.276 600.634 665.468 618.618 607.127C636.601 548.787 630.549 485.692 602.012 431.726C627.745 512.829 538.153 541.321 538.153 541.321L429.72 597.993L317.027 656.769C317.027 656.769 240.222 706.213 195.147 646.951Z" fill="#473ADE"/>
<path d="M194.743 647.348C223.28 701.314 272.088 741.733 330.43 759.712C388.771 777.692 451.867 771.759 505.837 743.22C559.807 714.681 600.23 665.872 618.213 607.532C636.197 549.192 630.267 486.098 601.73 432.132C627.463 513.235 537.749 541.725 537.749 541.725L429.316 598.397L316.623 657.173C316.623 657.173 239.817 706.61 194.743 647.348Z" fill="url(#paint0_linear_827_2)"/>
<path d="M535.266 535.696L543.637 539.765L534.801 543.311C534.801 543.311 538.592 541.52 539.045 539.765C539.488 538.046 535.266 535.696 535.266 535.696Z" fill="#251E73"/>
<path d="M603.405 644.544C631.272 590.229 636.421 527.067 617.717 468.954C599.013 410.841 557.989 362.536 503.67 334.667C449.351 306.797 386.187 301.646 328.072 320.346C269.957 339.046 221.653 380.066 193.786 434.381C245.497 366.811 320.263 423.999 320.263 423.999L428.85 480.376L541.602 539.037C541.602 539.037 626.134 573.642 603.405 644.544Z" fill="#D71D6A"/>
<path d="M602.853 644.32C630.637 590.167 635.77 527.193 617.122 469.253C598.474 411.313 557.572 363.152 503.415 335.366C449.258 307.579 386.281 302.443 328.34 321.088C270.398 339.732 222.238 380.629 194.454 434.783C246.011 367.414 320.554 424.432 320.554 424.432L428.817 480.641L541.234 539.127C541.234 539.127 625.514 573.629 602.853 644.32Z" fill="url(#paint1_linear_827_2)"/>
<path d="M320.053 429.454L319.958 423.335L325.305 426.313C325.305 426.313 322.606 424.727 321.236 425.581C319.894 426.418 320.053 429.454 320.053 429.454Z" fill="#741039"/>
<path d="M398.613 309.231C337.566 309.231 279.019 333.483 235.852 376.653C192.685 419.823 168.435 478.373 168.435 539.424C168.435 600.476 192.685 659.026 235.852 702.196C279.019 745.366 337.486 769.501 398.533 769.501C320.184 756.347 320.263 654.956 320.263 654.956L320.263 539.424L320.263 421.849C320.263 421.849 320.263 323.254 398.613 309.231Z" fill="#FF5B25"/>
<path d="M398.613 308.694C337.566 308.694 279.019 332.946 235.852 376.116C192.685 419.285 168.435 477.836 168.435 538.887C168.435 599.938 192.685 658.489 235.852 701.659C279.019 744.829 337.486 769.516 398.533 769.516C320.184 744.483 320.263 655.083 320.263 655.083V539.172V424C320.263 424 317.413 323.611 398.613 308.694Z" fill="url(#paint2_linear_827_2)"/>
<path d="M398.613 308.694C337.566 308.694 279.019 332.946 235.852 376.116C192.685 419.285 168.435 477.836 168.435 538.887C168.435 599.938 192.685 658.489 235.852 701.659C279.019 744.829 337.486 769.516 398.533 769.516C320.184 744.483 320.263 655.083 320.263 655.083V539.172V424C320.263 424 317.413 323.611 398.613 308.694Z" fill="url(#paint3_linear_827_2)" fill-opacity="0.3"/>
<path d="M398.534 769.502C320.789 734.09 320.356 655.047 320.356 655.047C320.356 655.047 223.996 709.404 191.557 639.881C191.557 639.881 246.462 769.963 398.534 769.502Z" fill="#473ADE"/>
<defs>
<filter id="filter0_d_827_2" x="724" y="460" width="1032.82" height="168" filterUnits="userSpaceOnUse" color-interpolation-filters="sRGB">
<feFlood flood-opacity="0" result="BackgroundImageFix"/>
<feColorMatrix in="SourceAlpha" type="matrix" values="0 0 0 0 0 0 0 0 0 0 0 0 0 0 0 0 0 0 127 0" result="hardAlpha"/>
<feOffset dy="4"/>
<feGaussianBlur stdDeviation="2"/>
<feColorMatrix type="matrix" values="0 0 0 0 0 0 0 0 0 0 0 0 0 0 0 0 0 0 0.25 0"/>
<feBlend mode="normal" in2="BackgroundImageFix" result="effect1_dropShadow_827_2"/>
<feBlend mode="normal" in="SourceGraphic" in2="effect1_dropShadow_827_2" result="shape"/>
</filter>
<linearGradient id="paint0_linear_827_2" x1="601.747" y1="513.179" x2="266.831" y2="843.854" gradientUnits="userSpaceOnUse">
<stop stop-opacity="0.6"/>
<stop offset="0.655513" stop-opacity="0"/>
</linearGradient>
<linearGradient id="paint1_linear_827_2" x1="260.661" y1="388.456" x2="722.209" y2="473.133" gradientUnits="userSpaceOnUse">
<stop stop-opacity="0.6"/>
<stop offset="0.645833" stop-opacity="0"/>
</linearGradient>
<linearGradient id="paint2_linear_827_2" x1="291.702" y1="740.566" x2="154.77" y2="318.803" gradientUnits="userSpaceOnUse">
<stop stop-opacity="0.6"/>
<stop offset="0.675464" stop-opacity="0"/>
</linearGradient>
<linearGradient id="paint3_linear_827_2" x1="291.702" y1="740.566" x2="154.77" y2="318.803" gradientUnits="userSpaceOnUse">
<stop stop-opacity="0.6"/>
<stop offset="0.675464" stop-opacity="0"/>
</linearGradient>
</defs>
</svg>
