<svg width="121" height="40" viewBox="0 0 121 40" fill="none" xmlns="http://www.w3.org/2000/svg">
<path d="M77.3804 9.6416V30.3254H81.4371C81.5984 30.3254 81.729 30.1947 81.729 30.0335V13.2376H82.6332C82.7944 13.2376 82.9251 13.1069 82.9251 12.9457V9.93352C82.9251 9.7723 82.7944 9.6416 82.6332 9.6416H77.3804Z" fill="url(#paint0_linear_73_2902)"/>
<path d="M77.3804 9.6416V30.3254H81.4371C81.5984 30.3254 81.729 30.1947 81.729 30.0335V13.2376H82.6332C82.7944 13.2376 82.9251 13.1069 82.9251 12.9457V9.93352C82.9251 9.7723 82.7944 9.6416 82.6332 9.6416H77.3804Z" fill="white"/>
<path d="M7.29215 30.5484C6.04703 30.5484 4.82979 30.3997 3.64043 30.1024C2.56696 29.8172 1.69029 29.4716 1.01042 29.0653C0.886222 28.9911 0.842221 28.8344 0.903148 28.7032L2.10605 26.1123C2.18046 25.9521 2.3789 25.8944 2.53208 25.9825C3.14183 26.3332 3.85507 26.6286 4.67183 26.8688C5.61961 27.129 6.5488 27.2591 7.4594 27.2591C9.2992 27.2591 10.2191 26.8038 10.2191 25.8932C10.2191 25.4657 9.96822 25.1591 9.46646 24.9733C8.96469 24.7874 8.19347 24.6295 7.15277 24.4994C5.92624 24.3135 4.91342 24.0998 4.11432 23.8582C3.31521 23.6166 2.61832 23.1892 2.02364 22.5759C1.44754 21.9627 1.15949 21.0892 1.15949 19.9556C1.15949 19.0078 1.42896 18.1716 1.96789 17.4468C2.5254 16.7035 3.32451 16.1274 4.3652 15.7185C5.42448 15.3097 6.66959 15.1052 8.10055 15.1052C9.15982 15.1052 10.2098 15.226 11.2505 15.4676C12.1948 15.6664 12.9915 15.9391 13.6404 16.2856C13.7729 16.3563 13.8223 16.519 13.7586 16.655L12.5548 19.2247C12.4827 19.3785 12.2953 19.4381 12.1444 19.36C10.9011 18.7164 9.5531 18.3946 8.10055 18.3946C7.17136 18.3946 6.47446 18.5247 6.00987 18.7848C5.54527 19.045 5.31297 19.3795 5.31297 19.7884C5.31297 20.253 5.56386 20.5782 6.06562 20.764C6.56738 20.9499 7.36649 21.1264 8.46293 21.2937C9.68946 21.4981 10.693 21.7211 11.4735 21.9627C12.254 22.1857 12.9323 22.6038 13.5084 23.2171C14.0845 23.8303 14.3726 24.6852 14.3726 25.7817C14.3726 26.7108 14.0938 27.5378 13.5363 28.2626C12.9788 28.9874 12.1611 29.5542 11.0833 29.963C10.024 30.3533 8.76027 30.5484 7.29215 30.5484Z" fill="url(#paint1_linear_73_2902)"/>
<path d="M7.29215 30.5484C6.04703 30.5484 4.82979 30.3997 3.64043 30.1024C2.56696 29.8172 1.69029 29.4716 1.01042 29.0653C0.886222 28.9911 0.842221 28.8344 0.903148 28.7032L2.10605 26.1123C2.18046 25.9521 2.3789 25.8944 2.53208 25.9825C3.14183 26.3332 3.85507 26.6286 4.67183 26.8688C5.61961 27.129 6.5488 27.2591 7.4594 27.2591C9.2992 27.2591 10.2191 26.8038 10.2191 25.8932C10.2191 25.4657 9.96822 25.1591 9.46646 24.9733C8.96469 24.7874 8.19347 24.6295 7.15277 24.4994C5.92624 24.3135 4.91342 24.0998 4.11432 23.8582C3.31521 23.6166 2.61832 23.1892 2.02364 22.5759C1.44754 21.9627 1.15949 21.0892 1.15949 19.9556C1.15949 19.0078 1.42896 18.1716 1.96789 17.4468C2.5254 16.7035 3.32451 16.1274 4.3652 15.7185C5.42448 15.3097 6.66959 15.1052 8.10055 15.1052C9.15982 15.1052 10.2098 15.226 11.2505 15.4676C12.1948 15.6664 12.9915 15.9391 13.6404 16.2856C13.7729 16.3563 13.8223 16.519 13.7586 16.655L12.5548 19.2247C12.4827 19.3785 12.2953 19.4381 12.1444 19.36C10.9011 18.7164 9.5531 18.3946 8.10055 18.3946C7.17136 18.3946 6.47446 18.5247 6.00987 18.7848C5.54527 19.045 5.31297 19.3795 5.31297 19.7884C5.31297 20.253 5.56386 20.5782 6.06562 20.764C6.56738 20.9499 7.36649 21.1264 8.46293 21.2937C9.68946 21.4981 10.693 21.7211 11.4735 21.9627C12.254 22.1857 12.9323 22.6038 13.5084 23.2171C14.0845 23.8303 14.3726 24.6852 14.3726 25.7817C14.3726 26.7108 14.0938 27.5378 13.5363 28.2626C12.9788 28.9874 12.1611 29.5542 11.0833 29.963C10.024 30.3533 8.76027 30.5484 7.29215 30.5484Z" fill="white"/>
<path fill-rule="evenodd" clip-rule="evenodd" d="M24.1918 30.5484C22.6122 30.5484 21.1905 30.2232 19.9268 29.5727C18.6817 28.9037 17.7061 27.9838 16.9999 26.8131C16.2937 25.6423 15.9406 24.3135 15.9406 22.8268C15.9406 21.3401 16.2937 20.0114 16.9999 18.8406C17.7061 17.6698 18.6817 16.7592 19.9268 16.1088C21.1905 15.4398 22.6122 15.1052 24.1918 15.1052C25.7714 15.1052 27.1838 15.4398 28.4289 16.1088C29.674 16.7592 30.6497 17.6698 31.3559 18.8406C32.0621 20.0114 32.4151 21.3401 32.4151 22.8268C32.4151 24.3135 32.0621 25.6423 31.3559 26.8131C30.6497 27.9838 29.674 28.9037 28.4289 29.5727C27.1838 30.2232 25.7714 30.5484 24.1918 30.5484ZM24.1918 26.9803C25.3068 26.9803 26.2174 26.6086 26.9236 25.8653C27.6484 25.1033 28.0108 24.0905 28.0108 22.8268C28.0108 21.5631 27.6484 20.5596 26.9236 19.8162C26.2174 19.0543 25.3068 18.6733 24.1918 18.6733C23.0768 18.6733 22.1569 19.0543 21.4321 19.8162C20.7073 20.5596 20.345 21.5631 20.345 22.8268C20.345 24.0905 20.7073 25.1033 21.4321 25.8653C22.1569 26.6086 23.0768 26.9803 24.1918 26.9803Z" fill="url(#paint2_linear_73_2902)"/>
<path fill-rule="evenodd" clip-rule="evenodd" d="M24.1918 30.5484C22.6122 30.5484 21.1905 30.2232 19.9268 29.5727C18.6817 28.9037 17.7061 27.9838 16.9999 26.8131C16.2937 25.6423 15.9406 24.3135 15.9406 22.8268C15.9406 21.3401 16.2937 20.0114 16.9999 18.8406C17.7061 17.6698 18.6817 16.7592 19.9268 16.1088C21.1905 15.4398 22.6122 15.1052 24.1918 15.1052C25.7714 15.1052 27.1838 15.4398 28.4289 16.1088C29.674 16.7592 30.6497 17.6698 31.3559 18.8406C32.0621 20.0114 32.4151 21.3401 32.4151 22.8268C32.4151 24.3135 32.0621 25.6423 31.3559 26.8131C30.6497 27.9838 29.674 28.9037 28.4289 29.5727C27.1838 30.2232 25.7714 30.5484 24.1918 30.5484ZM24.1918 26.9803C25.3068 26.9803 26.2174 26.6086 26.9236 25.8653C27.6484 25.1033 28.0108 24.0905 28.0108 22.8268C28.0108 21.5631 27.6484 20.5596 26.9236 19.8162C26.2174 19.0543 25.3068 18.6733 24.1918 18.6733C23.0768 18.6733 22.1569 19.0543 21.4321 19.8162C20.7073 20.5596 20.345 21.5631 20.345 22.8268C20.345 24.0905 20.7073 25.1033 21.4321 25.8653C22.1569 26.6086 23.0768 26.9803 24.1918 26.9803Z" fill="white"/>
<path d="M38.2488 29.5727C39.5311 30.2232 40.9713 30.5484 42.5695 30.5484C44.1492 30.5484 45.5244 30.2139 46.6951 29.5449C47.8018 28.9224 48.6268 28.0747 49.1704 27.0018C49.2394 26.8654 49.1838 26.7007 49.0496 26.6275L46.1692 25.0564C46.0283 24.9795 45.8526 25.0314 45.7675 25.1674C45.0107 26.376 43.9354 26.9803 42.5417 26.9803C41.408 26.9803 40.4696 26.6086 39.7262 25.8653C38.9829 25.1219 38.6112 24.1091 38.6112 22.8268C38.6112 21.5445 38.9829 20.5317 39.7262 19.7884C40.4696 19.045 41.408 18.6733 42.5417 18.6733C43.92 18.6733 44.9954 19.2795 45.7677 20.4917C45.8529 20.6254 46.0262 20.6762 46.1659 20.6012L49.05 19.0519C49.1841 18.9798 49.241 18.8163 49.1739 18.6796C48.6304 17.5722 47.8042 16.7153 46.6951 16.1088C45.5244 15.4398 44.1492 15.1052 42.5695 15.1052C40.9713 15.1052 39.5311 15.4398 38.2488 16.1088C36.9851 16.7592 35.9909 17.6698 35.2661 18.8406C34.5599 20.0114 34.2068 21.3401 34.2068 22.8268C34.2068 24.3135 34.5599 25.6423 35.2661 26.8131C35.9909 27.9838 36.9851 28.9037 38.2488 29.5727Z" fill="url(#paint3_linear_73_2902)"/>
<path d="M38.2488 29.5727C39.5311 30.2232 40.9713 30.5484 42.5695 30.5484C44.1492 30.5484 45.5244 30.2139 46.6951 29.5449C47.8018 28.9224 48.6268 28.0747 49.1704 27.0018C49.2394 26.8654 49.1838 26.7007 49.0496 26.6275L46.1692 25.0564C46.0283 24.9795 45.8526 25.0314 45.7675 25.1674C45.0107 26.376 43.9354 26.9803 42.5417 26.9803C41.408 26.9803 40.4696 26.6086 39.7262 25.8653C38.9829 25.1219 38.6112 24.1091 38.6112 22.8268C38.6112 21.5445 38.9829 20.5317 39.7262 19.7884C40.4696 19.045 41.408 18.6733 42.5417 18.6733C43.92 18.6733 44.9954 19.2795 45.7677 20.4917C45.8529 20.6254 46.0262 20.6762 46.1659 20.6012L49.05 19.0519C49.1841 18.9798 49.241 18.8163 49.1739 18.6796C48.6304 17.5722 47.8042 16.7153 46.6951 16.1088C45.5244 15.4398 44.1492 15.1052 42.5695 15.1052C40.9713 15.1052 39.5311 15.4398 38.2488 16.1088C36.9851 16.7592 35.9909 17.6698 35.2661 18.8406C34.5599 20.0114 34.2068 21.3401 34.2068 22.8268C34.2068 24.3135 34.5599 25.6423 35.2661 26.8131C35.9909 27.9838 36.9851 28.9037 38.2488 29.5727Z" fill="white"/>
<path fill-rule="evenodd" clip-rule="evenodd" d="M66.2249 15.1052C68.5479 15.1052 70.3319 15.6628 71.5771 16.7778C72.8222 17.8742 73.4447 19.5375 73.4447 21.7675V30.0335C73.4447 30.1947 73.314 30.3254 73.1528 30.3254H69.6668C69.5056 30.3254 69.3749 30.1947 69.3749 30.0335V28.4577C68.5572 29.8515 67.0333 30.5484 64.8033 30.5484C63.6511 30.5484 62.6475 30.3533 61.7927 29.963C60.9564 29.5727 60.3153 29.0338 59.8693 28.3462C59.4232 27.6586 59.2002 26.8781 59.2002 26.0047C59.2002 24.6109 59.7206 23.5144 60.7613 22.7153C61.8206 21.9162 63.4466 21.5167 65.6395 21.5167H68.8042C68.9654 21.5167 69.0974 21.3857 69.0865 21.2248C69.0323 20.4188 68.7474 19.7913 68.232 19.3424C67.6559 18.822 66.7917 18.5618 65.6395 18.5618C64.8404 18.5618 64.0506 18.6919 63.2701 18.9521C62.6384 19.1524 62.0833 19.4166 61.6049 19.7446C61.4531 19.8487 61.2404 19.8031 61.1563 19.6394L59.8738 17.143C59.8072 17.0135 59.8459 16.8543 59.9676 16.7744C60.7408 16.2669 61.6465 15.8685 62.6847 15.5791C63.8369 15.2632 65.017 15.1052 66.2249 15.1052ZM65.8904 27.6214C66.6338 27.6214 67.2935 27.4542 67.8696 27.1197C68.4457 26.7666 68.8545 26.2555 69.0961 25.5865V24.3453C69.0961 24.1841 68.9654 24.0534 68.8042 24.0534H66.1134C64.3294 24.0534 63.4373 24.6387 63.4373 25.8095C63.4373 26.367 63.6511 26.813 64.0785 27.1476C64.5245 27.4635 65.1285 27.6214 65.8904 27.6214Z" fill="url(#paint4_linear_73_2902)"/>
<path fill-rule="evenodd" clip-rule="evenodd" d="M66.2249 15.1052C68.5479 15.1052 70.3319 15.6628 71.5771 16.7778C72.8222 17.8742 73.4447 19.5375 73.4447 21.7675V30.0335C73.4447 30.1947 73.314 30.3254 73.1528 30.3254H69.6668C69.5056 30.3254 69.3749 30.1947 69.3749 30.0335V28.4577C68.5572 29.8515 67.0333 30.5484 64.8033 30.5484C63.6511 30.5484 62.6475 30.3533 61.7927 29.963C60.9564 29.5727 60.3153 29.0338 59.8693 28.3462C59.4232 27.6586 59.2002 26.8781 59.2002 26.0047C59.2002 24.6109 59.7206 23.5144 60.7613 22.7153C61.8206 21.9162 63.4466 21.5167 65.6395 21.5167H68.8042C68.9654 21.5167 69.0974 21.3857 69.0865 21.2248C69.0323 20.4188 68.7474 19.7913 68.232 19.3424C67.6559 18.822 66.7917 18.5618 65.6395 18.5618C64.8404 18.5618 64.0506 18.6919 63.2701 18.9521C62.6384 19.1524 62.0833 19.4166 61.6049 19.7446C61.4531 19.8487 61.2404 19.8031 61.1563 19.6394L59.8738 17.143C59.8072 17.0135 59.8459 16.8543 59.9676 16.7744C60.7408 16.2669 61.6465 15.8685 62.6847 15.5791C63.8369 15.2632 65.017 15.1052 66.2249 15.1052ZM65.8904 27.6214C66.6338 27.6214 67.2935 27.4542 67.8696 27.1197C68.4457 26.7666 68.8545 26.2555 69.0961 25.5865V24.3453C69.0961 24.1841 68.9654 24.0534 68.8042 24.0534H66.1134C64.3294 24.0534 63.4373 24.6387 63.4373 25.8095C63.4373 26.367 63.6511 26.813 64.0785 27.1476C64.5245 27.4635 65.1285 27.6214 65.8904 27.6214Z" fill="white"/>
<path d="M55.8218 15.3283C55.983 15.3283 56.1137 15.459 56.1137 15.6202V30.0335C56.1137 30.1947 55.983 30.3254 55.8218 30.3254H52.057C51.8958 30.3254 51.7651 30.1947 51.7651 30.0335V18.9242H50.861C50.6997 18.9242 50.569 18.7935 50.569 18.6323V15.6202C50.569 15.459 50.6997 15.3283 50.861 15.3283H55.8218Z" fill="url(#paint5_linear_73_2902)"/>
<path d="M55.8218 15.3283C55.983 15.3283 56.1137 15.459 56.1137 15.6202V30.0335C56.1137 30.1947 55.983 30.3254 55.8218 30.3254H52.057C51.8958 30.3254 51.7651 30.1947 51.7651 30.0335V18.9242H50.861C50.6997 18.9242 50.569 18.7935 50.569 18.6323V15.6202C50.569 15.459 50.6997 15.3283 50.861 15.3283H55.8218Z" fill="white"/>
<path d="M51.7645 11.8157C51.7645 10.615 52.7378 9.6416 53.9385 9.6416C55.1392 9.6416 56.1126 10.615 56.1126 11.8157C56.1126 13.0164 55.1392 13.9897 53.9385 13.9897C52.7378 13.9897 51.7645 13.0164 51.7645 11.8157Z" fill="url(#paint6_linear_73_2902)"/>
<path d="M51.7645 11.8157C51.7645 10.615 52.7378 9.6416 53.9385 9.6416C55.1392 9.6416 56.1126 10.615 56.1126 11.8157C56.1126 13.0164 55.1392 13.9897 53.9385 13.9897C52.7378 13.9897 51.7645 13.0164 51.7645 11.8157Z" fill="white"/>
<path d="M103.923 39.8768L86.8455 30.0173V10.2983L101.743 18.8994V20.9017C101.743 21.0768 101.885 21.2187 102.06 21.2187H103.532C103.667 21.2187 103.797 21.2215 103.923 21.2271L103.923 25.4778C103.796 25.4847 103.666 25.4881 103.532 25.4881C102.646 25.4881 101.775 25.3587 100.921 25.1C100.213 24.8679 99.5743 24.5609 99.0045 24.1789C98.8406 24.0691 98.6142 24.1214 98.5251 24.2974L97.295 26.7263C97.2245 26.8654 97.2653 27.0357 97.395 27.1223C98.1561 27.6308 99.0573 28.0321 100.099 28.3264C101.259 28.6336 102.436 28.7873 103.629 28.7873C103.728 28.7873 103.826 28.7862 103.923 28.7841L103.923 39.8768Z" fill="url(#paint7_linear_73_2902)"/>
<path d="M103.923 39.8768L86.8455 30.0173V10.2983L101.743 18.8994V20.9017C101.743 21.0768 101.885 21.2187 102.06 21.2187H103.532C103.667 21.2187 103.797 21.2215 103.923 21.2271L103.923 25.4778C103.796 25.4847 103.666 25.4881 103.532 25.4881C102.646 25.4881 101.775 25.3587 100.921 25.1C100.213 24.8679 99.5743 24.5609 99.0045 24.1789C98.8406 24.0691 98.6142 24.1214 98.5251 24.2974L97.295 26.7263C97.2245 26.8654 97.2653 27.0357 97.395 27.1223C98.1561 27.6308 99.0573 28.0321 100.099 28.3264C101.259 28.6336 102.436 28.7873 103.629 28.7873C103.728 28.7873 103.826 28.7862 103.923 28.7841L103.923 39.8768Z" fill="url(#paint8_linear_73_2902)"/>
<path d="M103.923 0.438965L121 10.2985L106.691 18.5595C106.484 18.5089 106.27 18.4654 106.047 18.429L109.789 14.1521C109.84 14.0944 109.868 14.0202 109.868 13.9434V11.8323C109.868 11.6573 109.726 11.5154 109.551 11.5154H98.336C98.1609 11.5154 98.019 11.6573 98.019 11.8323V14.3521C98.019 14.5271 98.1609 14.669 98.336 14.669H104.524C104.796 14.669 104.942 14.9906 104.762 15.1953L101.782 18.5782C101.757 18.6071 101.743 18.6444 101.743 18.6829V18.8995L86.8455 10.2985L103.923 0.438965Z" fill="url(#paint9_linear_73_2902)"/>
<path d="M106.691 18.5594L121 10.2983V30.0173L103.923 39.8768L103.923 28.7841C105.326 28.7538 106.518 28.5042 107.498 28.0352C108.562 27.5339 109.352 26.8708 109.868 26.0461C110.384 25.2051 110.642 24.2914 110.642 23.3049C110.642 22.0273 110.247 20.9599 109.457 20.1028C108.785 19.3605 107.864 18.846 106.691 18.5594Z" fill="url(#paint10_linear_73_2902)"/>
<path d="M106.691 18.5594L121 10.2983V30.0173L103.923 39.8768L103.923 28.7841C105.326 28.7538 106.518 28.5042 107.498 28.0352C108.562 27.5339 109.352 26.8708 109.868 26.0461C110.384 25.2051 110.642 24.2914 110.642 23.3049C110.642 22.0273 110.247 20.9599 109.457 20.1028C108.785 19.3605 107.864 18.846 106.691 18.5594Z" fill="url(#paint11_linear_73_2902)"/>
<path d="M103.923 21.2271L103.923 25.4778C104.723 25.434 105.367 25.2515 105.854 24.9302C106.418 24.5421 106.7 24.0003 106.7 23.3049C106.7 22.0026 105.774 21.31 103.923 21.2271Z" fill="url(#paint12_linear_73_2902)"/>
<path d="M103.923 21.2271L103.923 25.4778C104.723 25.434 105.367 25.2515 105.854 24.9302C106.418 24.5421 106.7 24.0003 106.7 23.3049C106.7 22.0026 105.774 21.31 103.923 21.2271Z" fill="url(#paint13_linear_73_2902)"/>
<defs>
<linearGradient id="paint0_linear_73_2902" x1="122.505" y1="-3.2438" x2="19.6937" y2="-49.5365" gradientUnits="userSpaceOnUse">
<stop stop-color="#01BFFF"/>
<stop offset="1" stop-color="#5558FF"/>
</linearGradient>
<linearGradient id="paint1_linear_73_2902" x1="122.505" y1="-3.2438" x2="19.6937" y2="-49.5365" gradientUnits="userSpaceOnUse">
<stop stop-color="#01BFFF"/>
<stop offset="1" stop-color="#5558FF"/>
</linearGradient>
<linearGradient id="paint2_linear_73_2902" x1="122.505" y1="-3.2438" x2="19.6937" y2="-49.5365" gradientUnits="userSpaceOnUse">
<stop stop-color="#01BFFF"/>
<stop offset="1" stop-color="#5558FF"/>
</linearGradient>
<linearGradient id="paint3_linear_73_2902" x1="122.505" y1="-3.2438" x2="19.6937" y2="-49.5365" gradientUnits="userSpaceOnUse">
<stop stop-color="#01BFFF"/>
<stop offset="1" stop-color="#5558FF"/>
</linearGradient>
<linearGradient id="paint4_linear_73_2902" x1="122.505" y1="-3.2438" x2="19.6937" y2="-49.5365" gradientUnits="userSpaceOnUse">
<stop stop-color="#01BFFF"/>
<stop offset="1" stop-color="#5558FF"/>
</linearGradient>
<linearGradient id="paint5_linear_73_2902" x1="122.505" y1="-3.2438" x2="19.6937" y2="-49.5365" gradientUnits="userSpaceOnUse">
<stop stop-color="#01BFFF"/>
<stop offset="1" stop-color="#5558FF"/>
</linearGradient>
<linearGradient id="paint6_linear_73_2902" x1="122.505" y1="-3.2438" x2="19.6937" y2="-49.5365" gradientUnits="userSpaceOnUse">
<stop stop-color="#01BFFF"/>
<stop offset="1" stop-color="#5558FF"/>
</linearGradient>
<linearGradient id="paint7_linear_73_2902" x1="84.51" y1="26.5727" x2="104.282" y2="19.8922" gradientUnits="userSpaceOnUse">
<stop stop-color="#729AFF"/>
<stop offset="1" stop-color="#3764FF"/>
</linearGradient>
<linearGradient id="paint8_linear_73_2902" x1="84.51" y1="26.5727" x2="104.282" y2="19.8922" gradientUnits="userSpaceOnUse">
<stop stop-color="#F2F4FF"/>
<stop offset="1" stop-color="white"/>
</linearGradient>
<linearGradient id="paint9_linear_73_2902" x1="103.923" y1="0.438965" x2="103.923" y2="18.8995" gradientUnits="userSpaceOnUse">
<stop stop-color="#ECF0FF"/>
<stop offset="1" stop-color="white"/>
</linearGradient>
<linearGradient id="paint10_linear_73_2902" x1="125.087" y1="31.6082" x2="103.923" y2="19.5666" gradientUnits="userSpaceOnUse">
<stop stop-color="#729AFF"/>
<stop offset="0.880275" stop-color="#4B73FF"/>
</linearGradient>
<linearGradient id="paint11_linear_73_2902" x1="125.087" y1="31.6082" x2="103.923" y2="19.5666" gradientUnits="userSpaceOnUse">
<stop stop-color="#EBF0FF"/>
<stop offset="1" stop-color="white"/>
</linearGradient>
<linearGradient id="paint12_linear_73_2902" x1="125.087" y1="31.6082" x2="103.923" y2="19.5666" gradientUnits="userSpaceOnUse">
<stop stop-color="#729AFF"/>
<stop offset="0.880275" stop-color="#4B73FF"/>
</linearGradient>
<linearGradient id="paint13_linear_73_2902" x1="125.087" y1="31.6082" x2="103.923" y2="19.5666" gradientUnits="userSpaceOnUse">
<stop stop-color="#EBF0FF"/>
<stop offset="1" stop-color="white"/>
</linearGradient>
</defs>
</svg>
