<svg width="118" height="53" viewBox="0 0 118 53" fill="none" xmlns="http://www.w3.org/2000/svg"><path fill-rule="evenodd" clip-rule="evenodd" d="M114.549 32.9622H88.2593V4.1687H108.358C111.777 4.1687 114.549 6.93509 114.549 10.3476V32.9622Z" fill="#0072FF" data-darkreader-inline-fill="" style="--darkreader-inline-fill: #33a0ff;"></path><path fill-rule="evenodd" clip-rule="evenodd" d="M116.959 30.8758H90.6692V2.08228H110.768C114.187 2.08228 116.959 4.84866 116.959 8.26118V30.8758Z" fill="#0072FF" data-darkreader-inline-fill="" style="--darkreader-inline-fill: #33a0ff;"></path><path fill-rule="evenodd" clip-rule="evenodd" d="M111.576 34.6315H9.31689V30.4585H111.576V34.6315Z" fill="#0072FF" data-darkreader-inline-fill="" style="--darkreader-inline-fill: #005bcc;"></path><path fill-rule="evenodd" clip-rule="evenodd" d="M22.7092 45.2195C22.8633 44.6675 22.9403 44.0358 22.9403 43.3248C22.9403 42.6191 22.8633 41.9917 22.7092 41.4422C22.5551 40.8929 22.3385 40.4121 22.0596 39.9999C21.7807 39.5879 21.4445 39.2405 21.0514 38.9577C20.658 38.6748 20.2209 38.4473 19.7401 38.2748C19.2593 38.1026 18.7424 37.9773 18.1898 37.8991C17.6371 37.821 17.0605 37.782 16.4601 37.782H9.52563V48.8838H16.4761C17.0765 48.8838 17.6531 48.8447 18.2057 48.7666C18.7584 48.6885 19.2737 48.5632 19.752 48.3909C20.2303 48.2185 20.6647 47.9897 21.0552 47.7042C21.4459 47.4187 21.7807 47.0711 22.0596 46.6618C22.3385 46.2523 22.5551 45.7716 22.7092 45.2195ZM19.7561 41.935C19.8915 42.3283 19.9593 42.7915 19.9593 43.3248C19.9593 43.8581 19.8915 44.3213 19.7561 44.7145C19.6205 45.1078 19.4026 45.4349 19.1025 45.6962C18.8021 45.9575 18.4103 46.1514 17.9268 46.2779C17.4433 46.4046 16.8534 46.4679 16.1573 46.4679H12.4827V40.1979H16.1573C16.8534 40.1979 17.4433 40.2612 17.9268 40.3877C18.4103 40.5144 18.8021 40.7056 19.1025 40.9614C19.4026 41.2174 19.6205 41.5418 19.7561 41.935Z" fill="black" data-darkreader-inline-fill="" style="--darkreader-inline-fill: #e8e6e3;"></path><path d="M47.6881 45.2484C47.6881 45.8111 47.5483 46.3412 47.2688 46.8384C46.9893 47.3355 46.5701 47.7699 46.0113 48.1415C45.4523 48.5131 44.755 48.8068 43.9193 49.0225C43.0835 49.2384 42.1068 49.3464 40.9889 49.3464C39.8711 49.3464 38.8915 49.2384 38.0504 49.0225C37.2091 48.8068 36.5093 48.5131 35.9503 48.1415C35.3913 47.7699 34.9721 47.3355 34.6926 46.8384C34.4131 46.3412 34.2734 45.8111 34.2734 45.2484V37.782H37.3148V44.1584C37.3148 44.5353 37.3627 44.8919 37.4587 45.2278C37.5544 45.5639 37.7354 45.8577 38.001 46.109C38.2668 46.3602 38.6395 46.5597 39.119 46.7072C39.5984 46.8548 40.2217 46.9285 40.9889 46.9285C41.7506 46.9285 42.3698 46.8548 42.8465 46.7072C43.3233 46.5597 43.6946 46.3602 43.9604 46.109C44.2262 45.8577 44.4056 45.5639 44.4987 45.2278C44.5919 44.8919 44.6386 44.5353 44.6386 44.1584V37.782H47.6881V45.2484Z" fill="black" data-darkreader-inline-fill="" style="--darkreader-inline-fill: #e8e6e3;"></path><path fill-rule="evenodd" clip-rule="evenodd" d="M72.6673 45.8215C72.6673 46.2523 72.6114 46.6268 72.4999 46.9446C72.3884 47.2625 72.2329 47.5356 72.0337 47.7647C71.8344 47.9936 71.5953 48.1795 71.3164 48.3222C71.0373 48.4649 70.7293 48.578 70.3918 48.6616C70.0543 48.745 69.6943 48.803 69.3117 48.8352C68.9292 48.8676 68.5333 48.8838 68.1242 48.8838H60.1777V37.782H67.9807C68.2943 37.782 68.609 37.7955 68.9253 37.8224C69.2414 37.8494 69.5429 37.8991 69.8299 37.972C70.1167 38.0446 70.3839 38.1456 70.6308 38.2748C70.878 38.4041 71.0931 38.5738 71.2765 38.7839C71.4597 38.994 71.6032 39.2471 71.7068 39.5435C71.8105 39.8398 71.8623 40.1899 71.8623 40.5939C71.8623 41.3156 71.687 41.888 71.3362 42.3107C70.9856 42.7337 70.433 43.0151 69.6785 43.1551C70.2098 43.1928 70.6655 43.275 71.0454 43.4015C71.4252 43.5281 71.7348 43.7005 71.9738 43.9186C72.2131 44.1367 72.3884 44.4035 72.4999 44.7186C72.6114 45.0336 72.6673 45.4013 72.6673 45.8215ZM68.9769 41.0706C68.9769 40.9306 68.9557 40.7972 68.9132 40.6706C68.8708 40.5439 68.7937 40.4322 68.6822 40.3354C68.5705 40.2383 68.4191 40.1602 68.2278 40.101C68.0365 40.0417 67.7921 40.012 67.4945 40.012H63.1348V42.0967H67.4945C67.7921 42.0967 68.0365 42.0698 68.2278 42.0159C68.4191 41.962 68.5705 41.8893 68.6822 41.7978C68.7937 41.7062 68.8708 41.597 68.9132 41.4705C68.9557 41.3439 68.9769 41.2106 68.9769 41.0706ZM69.535 44.8639C69.6199 45.0176 69.6625 45.2209 69.6625 45.474C69.6625 45.7272 69.6199 45.9305 69.535 46.084C69.45 46.2377 69.3171 46.3574 69.1364 46.4437C68.9557 46.5298 68.7219 46.5864 68.4351 46.6134C68.1481 46.6403 67.8054 46.6536 67.4068 46.6536H63.1348V44.3025H67.4068C67.8054 44.3025 68.1481 44.316 68.4351 44.3429C68.7219 44.3699 68.9557 44.425 69.1364 44.5085C69.3171 44.5919 69.45 44.7104 69.535 44.8639Z" fill="black" data-darkreader-inline-fill="" style="--darkreader-inline-fill: #e8e6e3;"></path><path fill-rule="evenodd" clip-rule="evenodd" d="M87.1841 46.7831H93.3063L94.3375 48.8838H97.6464L91.8997 37.782H88.5907L82.844 48.8838H86.153L87.1841 46.7831ZM92.2594 44.6175H88.2471L90.2612 40.5293L92.2594 44.6175Z" fill="black" data-darkreader-inline-fill="" style="--darkreader-inline-fill: #e8e6e3;"></path><path d="M108.748 48.8838V37.782H111.524V48.8838H108.748Z" fill="black" data-darkreader-inline-fill="" style="--darkreader-inline-fill: #e8e6e3;"></path><path d="M107.497 16.8825C108.423 17.0879 109.213 17.3356 109.869 17.6257C110.525 17.9158 111.059 18.2506 111.473 18.63C111.886 19.0094 112.187 19.4335 112.375 19.9021C112.565 20.3707 112.658 20.8818 112.658 21.4353C112.658 22.3994 112.395 23.243 111.87 23.9661C111.344 24.6892 110.617 25.2895 109.687 25.7672C108.757 26.2447 107.659 26.6018 106.392 26.8384C105.126 27.0749 103.756 27.1932 102.283 27.1932C101.294 27.1932 100.387 27.1508 99.5606 27.066C98.7341 26.9812 97.9727 26.8718 97.2765 26.7379C96.5803 26.6041 95.9402 26.4546 95.3563 26.2893C94.7724 26.1242 94.2288 25.9569 93.7258 25.7872V21.3817C94.2828 21.6763 94.9093 21.9397 95.6056 22.1718C96.3018 22.4039 97.0205 22.6025 97.7616 22.7677C98.5027 22.9328 99.2507 23.0577 100.005 23.1426C100.76 23.2274 101.474 23.2698 102.148 23.2698C103.37 23.2698 104.344 23.1961 105.072 23.0489C105.8 22.9015 106.352 22.7141 106.73 22.4864C107.107 22.2589 107.352 22.0156 107.463 21.7567C107.576 21.4978 107.633 21.2523 107.633 21.0202C107.633 20.6274 107.504 20.2882 107.248 20.0025C106.993 19.7169 106.543 19.4803 105.901 19.2928C105.259 19.1053 104.389 18.9648 103.293 18.871C102.197 18.7773 100.814 18.726 99.1429 18.7171V15.0748C100.661 15.0748 101.921 15.0435 102.922 14.9811C103.924 14.9186 104.726 14.8204 105.328 14.6865C105.93 14.5526 106.354 14.3785 106.602 14.1642C106.849 13.9501 106.972 13.6867 106.972 13.3742C106.972 13.276 106.956 13.1689 106.925 13.0529C106.893 12.9368 106.823 12.8163 106.716 12.6913C106.608 12.5663 106.451 12.4458 106.244 12.3298C106.038 12.2137 105.754 12.1111 105.395 12.0218C105.036 11.9325 104.592 11.8611 104.061 11.8075C103.531 11.754 102.893 11.7272 102.148 11.7272C101.447 11.7272 100.735 11.7629 100.012 11.8344C99.2889 11.9057 98.5814 12.0129 97.8896 12.1557C97.198 12.2985 96.5287 12.4726 95.8818 12.678C95.235 12.8832 94.6376 13.1242 94.0897 13.4011V9.00892C95.3113 8.60722 96.6185 8.31039 98.0109 8.11845C99.4034 7.92653 100.782 7.83057 102.148 7.83057C103.486 7.83057 104.751 7.91983 105.942 8.09837C107.132 8.27691 108.173 8.56035 109.067 8.94867C109.961 9.337 110.669 9.84137 111.19 10.4618C111.711 11.0822 111.971 11.8344 111.971 12.7181C111.971 13.1912 111.888 13.6398 111.722 14.0639C111.555 14.4878 111.293 14.8784 110.934 15.2355C110.574 15.5926 110.112 15.9095 109.545 16.1863C108.98 16.463 108.297 16.6951 107.497 16.8825Z" fill="white" data-darkreader-inline-fill="" style="--darkreader-inline-fill: #e8e6e3;"></path><path d="M23.2236 7.83057L28.2329 21.4002L33.656 7.83057H39.1506L31.2727 27.3743H25.3928L20.2694 14.2313L15.1602 27.3743H9.28032L1.38818 7.83057H6.89698L12.206 21.1157L17.3295 7.83057H23.2236Z" fill="black" data-darkreader-inline-fill="" style="--darkreader-inline-fill: #000000;"></path><path d="M41.0652 27.3743V7.83057H60.7421V11.9982H46.4548V15.227H60.0065V19.3946H46.4548V23.2066H60.9401V27.3743H41.0652Z" fill="black" data-darkreader-inline-fill="" style="--darkreader-inline-fill: #e8e6e3;"></path><path d="M85.4945 21.9834C85.4945 22.742 85.3953 23.401 85.197 23.9605C84.9988 24.52 84.7226 25.0012 84.3685 25.4042C84.0144 25.8073 83.5895 26.1344 83.0938 26.3857C82.5981 26.637 82.0505 26.8361 81.4509 26.9831C80.8513 27.1301 80.2116 27.232 79.5318 27.2889C78.8519 27.3458 78.1485 27.3743 77.4215 27.3743H63.3008V7.83057H77.1665C77.7236 7.83057 78.283 7.85427 78.8449 7.90169C79.4067 7.9491 79.9425 8.03681 80.4524 8.16483C80.9622 8.29284 81.4367 8.47064 81.8758 8.69823C82.3148 8.92581 82.6972 9.22451 83.023 9.59433C83.3487 9.96416 83.6037 10.4098 83.7878 10.9314C83.9719 11.4529 84.064 12.0693 84.064 12.7805C84.064 14.0512 83.7524 15.0587 83.1292 15.8031C82.506 16.5475 81.5241 17.0429 80.1833 17.2895C81.1275 17.3559 81.9372 17.5005 82.6123 17.7233C83.2874 17.9462 83.8374 18.2496 84.2623 18.6336C84.6872 19.0177 84.9988 19.4871 85.197 20.0418C85.3953 20.5966 85.4945 21.2437 85.4945 21.9834ZM78.9369 13.6197C78.9369 13.3732 78.8992 13.1385 78.8236 12.9156C78.7481 12.6928 78.6112 12.496 78.4129 12.3253C78.2146 12.1546 77.9455 12.0171 77.6056 11.9128C77.2657 11.8085 76.8313 11.7564 76.3026 11.7564H68.5553V15.4262H76.3026C76.8313 15.4262 77.2657 15.3787 77.6056 15.2839C77.9455 15.1891 78.2146 15.0611 78.4129 14.8999C78.6112 14.7387 78.7481 14.5466 78.8236 14.3238C78.8992 14.101 78.9369 13.8663 78.9369 13.6197ZM80.155 21.3718C80.155 20.9261 80.0794 20.5681 79.9283 20.2978C79.7773 20.0276 79.5412 19.819 79.2202 19.672C78.8992 19.525 78.4837 19.4278 77.9738 19.3804C77.464 19.333 76.8549 19.3093 76.1468 19.3093H68.5553V23.4485H76.1468C76.8549 23.4485 77.464 23.4247 77.9738 23.3773C78.4837 23.3299 78.8992 23.2304 79.2202 23.0786C79.5412 22.9269 79.7773 22.7159 79.9283 22.4457C80.0794 22.1754 80.155 21.8174 80.155 21.3718Z" fill="black" data-darkreader-inline-fill="" style="--darkreader-inline-fill: #e8e6e3;"></path></svg>