<svg xmlns="http://www.w3.org/2000/svg" xmlns:xlink="http://www.w3.org/1999/xlink" viewBox="0 0 163 38"><g id="ss980965263_1"><path d="M 0 37.045 L 0 0 L 163 0 L 163 37.045 Z" fill="transparent"/><g transform="translate(0.735 0)" id="ss980965263_3"><path d="M 14.225 36.453 C 10.535 36.453 6.875 35.149 3.748 32.637 L 3.2 32.193 L 8.839 25.821 C 8.957 25.688 9.127 25.606 9.305 25.591 C 9.483 25.584 9.661 25.643 9.794 25.762 C 9.928 25.88 10.009 26.051 10.024 26.229 C 10.031 26.406 9.972 26.584 9.854 26.718 L 5.164 32.015 C 9.105 34.919 13.862 35.831 18.33 34.504 L 23.79 32.874 L 29.251 34.504 C 33.711 35.831 38.467 34.927 42.409 32.022 L 37.652 26.688 C 37.534 26.555 37.475 26.377 37.482 26.199 C 37.489 26.021 37.571 25.851 37.704 25.732 C 37.838 25.613 38.016 25.554 38.193 25.562 C 38.371 25.569 38.542 25.651 38.66 25.784 L 44.365 32.185 L 43.809 32.63 C 39.408 36.157 33.963 37.305 28.858 35.786 L 23.783 34.275 L 18.707 35.786 C 17.255 36.223 15.744 36.438 14.225 36.438" fill="rgb(51,51,51)"/><path d="M 14.225 36.453 C 10.535 36.453 6.875 35.149 3.748 32.637 L 3.2 32.193 L 8.839 25.821 C 8.957 25.688 9.127 25.606 9.305 25.591 C 9.483 25.584 9.661 25.643 9.794 25.762 C 9.928 25.88 10.009 26.051 10.024 26.229 C 10.031 26.406 9.972 26.584 9.854 26.718 L 5.164 32.015 C 9.105 34.919 13.862 35.831 18.33 34.504 L 23.79 32.874 L 29.251 34.504 C 33.711 35.831 38.467 34.927 42.409 32.022 L 37.652 26.688 C 37.534 26.555 37.475 26.377 37.482 26.199 C 37.489 26.021 37.571 25.851 37.704 25.732 C 37.838 25.613 38.016 25.554 38.193 25.562 C 38.371 25.569 38.542 25.651 38.66 25.784 L 44.365 32.185 L 43.809 32.63 C 39.408 36.157 33.963 37.305 28.858 35.786 L 23.783 34.275 L 18.707 35.786 C 17.255 36.223 15.744 36.438 14.225 36.438" fill="transparent" stroke-width="0.740909" stroke="rgb(51,51,51)" stroke-linejoin="round" stroke-dasharray=""/><path d="M 23.783 33.622 L 12.669 27.214 C 11.439 26.317 10.439 25.146 9.757 23.783 C 9.076 22.42 8.727 20.916 8.75 19.397 L 8.846 12.832 L 13.291 14.292 C 13.38 14.322 13.454 14.359 13.528 14.418 C 13.595 14.477 13.654 14.544 13.691 14.626 C 13.736 14.707 13.758 14.789 13.766 14.877 C 13.766 14.966 13.766 15.055 13.736 15.144 C 13.706 15.226 13.662 15.307 13.603 15.374 C 13.543 15.441 13.469 15.5 13.395 15.537 C 13.314 15.574 13.225 15.596 13.136 15.604 C 13.047 15.604 12.958 15.604 12.869 15.566 L 10.165 14.677 L 10.098 19.404 C 10.083 20.701 10.372 21.99 10.957 23.153 C 11.535 24.317 12.387 25.324 13.44 26.095 L 23.79 32.066 L 34.266 26.095 C 35.319 25.332 36.178 24.317 36.756 23.153 C 37.341 21.99 37.63 20.701 37.615 19.397 L 37.549 14.67 L 34.467 15.655 C 34.296 15.707 34.111 15.692 33.955 15.611 C 33.8 15.529 33.674 15.389 33.622 15.218 C 33.57 15.048 33.585 14.863 33.666 14.707 C 33.748 14.551 33.889 14.425 34.059 14.374 L 38.868 12.84 L 38.956 19.382 C 38.979 20.908 38.63 22.42 37.949 23.783 C 37.26 25.146 36.26 26.325 35.022 27.214 L 34.963 27.251 Z" fill="rgb(51,51,51)" stroke-width="0.740909" stroke="rgb(51,51,51)" stroke-linecap="round" stroke-linejoin="round" stroke-dasharray=""/><path d="M 23.812 22.909 L 14.44 17.552 L 23.812 30.8 L 32.978 17.552 Z" fill="rgb(51,51,51)"/><path d="M 23.812 0 L 14.736 15.144 L 23.797 20.642 L 32.984 15.218 Z" fill="rgb(51,51,51)"/><path d="M 5.075 27.555 C 4.92 27.555 4.771 27.503 4.653 27.407 C 4.534 27.31 4.453 27.177 4.416 27.029 C 3.971 25.065 2.704 22.961 0.763 20.961 L 0 20.183 L 1.037 19.849 C 3.334 19.123 5.335 19.019 7.165 19.545 C 7.335 19.597 7.483 19.708 7.565 19.864 C 7.654 20.02 7.668 20.205 7.624 20.375 C 7.579 20.546 7.461 20.694 7.305 20.775 C 7.15 20.864 6.965 20.879 6.794 20.835 C 5.483 20.457 4.097 20.457 2.489 20.835 C 4.179 22.768 5.29 24.784 5.735 26.717 C 5.757 26.814 5.757 26.918 5.735 27.014 C 5.712 27.11 5.668 27.206 5.601 27.28 C 5.535 27.362 5.46 27.421 5.364 27.466 C 5.275 27.51 5.172 27.532 5.075 27.532" fill="rgb(51,51,51)"/><path d="M 5.075 27.555 C 4.92 27.555 4.771 27.503 4.653 27.407 C 4.534 27.31 4.453 27.177 4.416 27.029 C 3.971 25.065 2.704 22.961 0.763 20.961 L 0 20.183 L 1.037 19.849 C 3.334 19.123 5.335 19.019 7.165 19.545 C 7.335 19.597 7.483 19.708 7.565 19.864 C 7.654 20.02 7.668 20.205 7.624 20.375 C 7.579 20.546 7.461 20.694 7.305 20.775 C 7.15 20.864 6.965 20.879 6.794 20.835 C 5.483 20.457 4.097 20.457 2.489 20.835 C 4.179 22.768 5.29 24.784 5.735 26.717 C 5.757 26.814 5.757 26.918 5.735 27.014 C 5.712 27.11 5.668 27.206 5.601 27.28 C 5.535 27.362 5.46 27.421 5.364 27.466 C 5.275 27.51 5.172 27.532 5.075 27.532" fill="transparent" stroke-width="0.740909" stroke="rgb(51,51,51)" stroke-linecap="round" stroke-linejoin="round" stroke-dasharray=""/><path d="M 42.557 27.554 C 42.453 27.554 42.357 27.532 42.268 27.488 C 42.179 27.443 42.098 27.377 42.031 27.302 C 41.964 27.228 41.92 27.132 41.898 27.036 C 41.876 26.939 41.876 26.836 41.898 26.739 C 42.342 24.805 43.454 22.79 45.143 20.857 C 43.535 20.479 42.15 20.479 40.838 20.857 C 40.757 20.879 40.668 20.886 40.579 20.879 C 40.49 20.871 40.409 20.842 40.327 20.797 C 40.253 20.753 40.179 20.694 40.127 20.627 C 40.075 20.56 40.031 20.479 40.008 20.39 C 39.986 20.308 39.979 20.219 39.986 20.13 C 39.994 20.041 40.023 19.96 40.068 19.878 C 40.112 19.804 40.171 19.73 40.238 19.678 C 40.305 19.627 40.386 19.582 40.468 19.56 C 42.298 19.034 44.306 19.13 46.595 19.864 L 47.632 20.197 L 46.869 20.975 C 44.928 22.976 43.661 25.072 43.217 27.043 C 43.18 27.191 43.098 27.325 42.979 27.421 C 42.861 27.517 42.713 27.569 42.557 27.569" fill="rgb(51,51,51)"/><path d="M 42.557 27.554 C 42.453 27.554 42.357 27.532 42.268 27.488 C 42.179 27.443 42.098 27.377 42.031 27.302 C 41.964 27.228 41.92 27.132 41.898 27.036 C 41.876 26.939 41.876 26.836 41.898 26.739 C 42.342 24.805 43.454 22.79 45.143 20.857 C 43.535 20.479 42.15 20.479 40.838 20.857 C 40.757 20.879 40.668 20.886 40.579 20.879 C 40.49 20.871 40.409 20.842 40.327 20.797 C 40.253 20.753 40.179 20.694 40.127 20.627 C 40.075 20.56 40.031 20.479 40.008 20.39 C 39.986 20.308 39.979 20.219 39.986 20.13 C 39.994 20.041 40.023 19.96 40.068 19.878 C 40.112 19.804 40.171 19.73 40.238 19.678 C 40.305 19.627 40.386 19.582 40.468 19.56 C 42.298 19.034 44.306 19.13 46.595 19.864 L 47.632 20.197 L 46.869 20.975 C 44.928 22.976 43.661 25.072 43.217 27.043 C 43.18 27.191 43.098 27.325 42.979 27.421 C 42.861 27.517 42.713 27.569 42.557 27.569" fill="transparent" stroke-width="0.740909" stroke="rgb(51,51,51)" stroke-miterlimit="10" stroke-dasharray=""/><path d="M 13.062 12.921 C 12.966 12.921 12.877 12.899 12.788 12.862 C 12.699 12.825 12.625 12.766 12.558 12.699 C 12.492 12.625 12.447 12.543 12.418 12.455 C 12.388 12.366 12.381 12.269 12.388 12.173 L 12.921 7.379 L 16.278 9.669 C 16.418 9.773 16.515 9.928 16.552 10.098 C 16.581 10.269 16.552 10.447 16.448 10.595 C 16.352 10.743 16.196 10.839 16.026 10.877 C 15.855 10.914 15.67 10.877 15.529 10.78 L 14.018 9.75 L 13.729 12.321 C 13.714 12.484 13.633 12.64 13.507 12.751 C 13.381 12.862 13.225 12.921 13.055 12.921" fill="rgb(51,51,51)"/><path d="M 13.062 12.921 C 12.966 12.921 12.877 12.899 12.788 12.862 C 12.699 12.825 12.625 12.766 12.558 12.699 C 12.492 12.625 12.447 12.543 12.418 12.455 C 12.388 12.366 12.381 12.269 12.388 12.173 L 12.921 7.379 L 16.278 9.669 C 16.418 9.773 16.515 9.928 16.552 10.098 C 16.581 10.269 16.552 10.447 16.448 10.595 C 16.352 10.743 16.196 10.839 16.026 10.877 C 15.855 10.914 15.67 10.877 15.529 10.78 L 14.018 9.75 L 13.729 12.321 C 13.714 12.484 13.633 12.64 13.507 12.751 C 13.381 12.862 13.225 12.921 13.055 12.921" fill="transparent" stroke-width="0.740909" stroke="rgb(51,51,51)" stroke-linejoin="round" stroke-dasharray=""/><path d="M 34.348 12.921 C 34.185 12.921 34.03 12.862 33.904 12.751 C 33.778 12.64 33.704 12.492 33.681 12.329 L 33.348 9.735 L 31.822 10.773 C 31.674 10.877 31.496 10.914 31.318 10.877 C 31.14 10.847 30.985 10.743 30.888 10.595 C 30.785 10.447 30.747 10.269 30.785 10.091 C 30.822 9.913 30.918 9.758 31.066 9.661 L 34.408 7.379 L 35.015 12.158 C 35.03 12.255 35.015 12.351 34.993 12.44 C 34.963 12.529 34.919 12.618 34.852 12.684 C 34.785 12.758 34.711 12.81 34.622 12.855 C 34.534 12.892 34.437 12.914 34.348 12.914" fill="rgb(51,51,51)"/><path d="M 34.348 12.921 C 34.185 12.921 34.03 12.862 33.904 12.751 C 33.778 12.64 33.704 12.492 33.681 12.329 L 33.348 9.735 L 31.822 10.773 C 31.674 10.877 31.496 10.914 31.318 10.877 C 31.14 10.847 30.985 10.743 30.888 10.595 C 30.785 10.447 30.747 10.269 30.785 10.091 C 30.822 9.913 30.918 9.758 31.066 9.661 L 34.408 7.379 L 35.015 12.158 C 35.03 12.255 35.015 12.351 34.993 12.44 C 34.963 12.529 34.919 12.618 34.852 12.684 C 34.785 12.758 34.711 12.81 34.622 12.855 C 34.534 12.892 34.437 12.914 34.348 12.914" fill="transparent" stroke-width="0.740909" stroke="rgb(51,51,51)" stroke-linecap="round" stroke-linejoin="round" stroke-dasharray=""/><path d="M 102.274 10.143 L 102.274 18.486 L 92.339 18.486 L 92.339 10.143 L 58.946 10.143 L 58.946 29.948 L 74.201 29.948 L 74.201 26.836 L 63.013 26.836 L 63.013 21.598 L 74.209 21.598 L 74.209 18.486 L 63.013 18.486 L 63.013 13.255 L 79.232 13.255 L 79.232 29.948 L 83.292 29.948 L 83.292 13.255 L 88.278 13.255 L 88.278 29.948 L 92.346 29.948 L 92.346 21.598 L 102.281 21.598 L 102.281 29.94 L 106.342 29.94 L 106.342 10.143 L 102.281 10.143 Z" fill="rgb(51,51,51)"/><path d="M 109.024 29.948 L 112.24 29.948 L 112.24 10.077 L 109.024 10.077 Z" fill="rgb(51,51,51)"/><path d="M 115.077 16.492 L 118.196 16.492 L 118.196 17.737 C 119.285 16.663 120.508 16.122 121.871 16.122 C 123.435 16.122 124.657 16.619 125.531 17.604 C 126.287 18.441 126.665 19.812 126.665 21.709 L 126.665 29.955 L 123.546 29.955 L 123.546 22.442 C 123.546 21.116 123.36 20.197 122.99 19.693 C 122.627 19.175 121.975 18.923 121.027 18.923 C 119.997 18.923 119.263 19.264 118.826 19.945 C 118.404 20.619 118.189 21.79 118.189 23.465 L 118.189 29.955 L 115.07 29.955 L 115.07 16.492 Z" fill="rgb(51,51,51)"/><path d="M 131.155 23.176 C 131.155 24.465 131.503 25.517 132.192 26.325 C 132.903 27.147 133.792 27.555 134.874 27.555 C 136.023 27.555 136.956 27.162 137.667 26.369 C 138.379 25.547 138.734 24.51 138.734 23.25 C 138.734 21.99 138.379 20.946 137.667 20.131 C 136.956 19.331 136.037 18.93 134.904 18.93 C 133.837 18.93 132.94 19.338 132.222 20.146 C 131.51 20.968 131.155 21.976 131.155 23.183 Z M 138.534 10.077 L 141.654 10.077 L 141.654 29.948 L 138.534 29.948 L 138.534 28.54 C 137.312 29.74 135.926 30.333 134.378 30.333 C 132.533 30.333 131.007 29.659 129.792 28.318 C 128.584 26.947 127.984 25.236 127.984 23.176 C 127.984 21.116 128.584 19.494 129.792 18.145 C 130.992 16.789 132.496 16.115 134.311 16.115 C 135.889 16.115 137.297 16.76 138.542 18.049 L 138.542 10.077 Z" fill="rgb(51,51,51)"/><path d="M 143.876 29.948 L 146.981 29.948 L 146.981 16.493 L 143.876 16.493 Z M 143.41 12.084 C 143.41 11.543 143.61 11.069 144.002 10.676 C 144.187 10.484 144.41 10.336 144.654 10.232 C 144.899 10.128 145.158 10.076 145.425 10.084 C 145.988 10.084 146.462 10.284 146.862 10.676 C 147.255 11.062 147.455 11.536 147.455 12.099 C 147.455 12.662 147.255 13.144 146.862 13.536 C 146.677 13.729 146.462 13.877 146.21 13.981 C 145.966 14.085 145.699 14.136 145.44 14.129 C 145.173 14.129 144.906 14.085 144.662 13.981 C 144.417 13.877 144.187 13.729 144.002 13.536 C 143.602 13.144 143.41 12.655 143.41 12.084 Z" fill="rgb(51,51,51)"/><path d="M 151.767 23.176 C 151.767 24.465 152.115 25.517 152.804 26.325 C 153.515 27.147 154.404 27.554 155.486 27.554 C 156.634 27.554 157.568 27.162 158.272 26.369 C 158.983 25.547 159.339 24.509 159.339 23.25 C 159.339 21.99 158.983 20.946 158.272 20.131 C 157.561 19.33 156.642 18.93 155.508 18.93 C 154.441 18.93 153.545 19.338 152.826 20.145 C 152.115 20.968 151.759 21.983 151.759 23.183 Z M 159.146 16.493 L 162.265 16.493 L 162.265 29.948 L 159.146 29.948 L 159.146 28.54 C 157.864 29.74 156.486 30.333 155.019 30.333 C 153.16 30.333 151.618 29.659 150.403 28.317 C 149.196 26.947 148.596 25.235 148.596 23.176 C 148.596 21.116 149.196 19.479 150.403 18.13 C 151.611 16.782 153.123 16.115 154.938 16.115 C 156.501 16.115 157.909 16.759 159.154 18.049 L 159.154 16.485 Z" fill="rgb(51,51,51)"/></g></g></svg>